PathFileType	4	(X/Y/Z)	HSS_walk4.trc
DataRate	CameraRate	NumFrames	NumMarkers	Units	OrigDataRate	OrigDataStartFrame	OrigNumFrames
120.0	120.0	4	44	mm	120.0	434	1155
Frame#	Time		R.Shoulder		Offset		L.Shoulder		R.Elbow		R.Wrist.Radial		R.Wrist		R.Hand		L.Elbow		L.Wrist.Radial		L.Wrist		L.Hand		R.Hip		V.Sacral		L.PSIS		L.Hip		R.Thigh.Upper		R.Thigh.Front		R.Thigh.Rear		X.Shell.Lower.Thigh.Right		R.Knee.Lateral		R.Shank.Upper		R.Shank.Front		R.Shank.Rear		X.Shell.Lower.Shank.Right		R.Ankle.Lateral		R.Heel		R.Toe		L.Thigh.Upper		L.Thigh.Front		L.Thigh.Rear		X.Shell.Lower.Thigh.Left		L.Knee.Lateral		L.Shank.Upper		L.Shank.Front		L.Shank.Rear		X.Shell.Lower.Shank.Left		L.Ankle.Lateral		L.Heel		L.Toe		R.Troc		L.Troc		R.PSIS		L.ASIS		R.ASIS
			X1	Y1	Z1	X2	Y2	Z2	X3	Y3	Z3	X4	Y4	Z4	X5	Y5	Z5	X6	Y6	Z6	X7	Y7	Z7	X8	Y8	Z8	X9	Y9	Z9	X10	Y10	Z10	X11	Y11	Z11	X12	Y12	Z12	X13	Y13	Z13	X14	Y14	Z14	X15	Y15	Z15	X16	Y16	Z16	X17	Y17	Z17	X18	Y18	Z18	X19	Y19	Z19	X20	Y20	Z20	X21	Y21	Z21	X22	Y22	Z22	X23	Y23	Z23	X24	Y24	Z24	X25	Y25	Z25	X26	Y26	Z26	X27	Y27	Z27	X28	Y28	Z28	X29	Y29	Z29	X30	Y30	Z30	X31	Y31	Z31	X32	Y32	Z32	X33	Y33	Z33	X34	Y34	Z34	X35	Y35	Z35	X36	Y36	Z36	X37	Y37	Z37	X38	Y38	Z38	X39	Y39	Z39	X40	Y40	Z40	X41	Y41	Z41	X42	Y42	Z42	X43	Y43	Z43	X44	Y44	Z44

434	3.60833	-1743.98389	1467.99756	-68.91624	-1846.35876	1388.56531	-368.80334	-1705.89331	1477.01013	-442.45001	-1803.33435	1107.09106	-21.99339	-1695.77979	881.47632	33.37495	-1652.98926	892.22327	-27.17736	-1643.47388	811.17438	30.24659	-1766.24365	1118.65430	-500.12668	-1670.58154	897.84137	-536.73645	-1638.10364	894.83557	-470.72244	-1633.61340	819.34723	-520.47974	-1746.25256	1029.71887	-99.36943	-1855.22522	1013.01520	-256.06689	-1848.32812	1020.51843	-296.22424	-1722.05115	1027.01843	-395.91730	-1603.58765	709.28467	-79.67688	-1559.76147	687.31250	-98.47536	-1610.33240	664.98425	-70.74570	-1573.30029	645.02411	-90.85088	-1601.76599	524.48090	-99.46023	-1669.28223	396.83728	-52.48475	-1662.26050	345.07394	-72.77013	-1713.16833	377.26111	-66.57422	-1709.56311	330.96436	-72.95261	-1818.21497	139.28462	-115.15751	-1869.60181	115.94524	-169.41298	-1698.99438	50.46614	-94.74959	-1682.00208	676.31854	-398.78546	-1666.76697	627.70941	-371.54745	-1712.77502	641.23462	-412.45538	-1690.32434	605.92804	-395.91061	-1766.20862	493.46185	-373.89771	-1825.64685	294.94394	-404.91599	-1806.20435	268.58557	-380.42126	-1865.47351	262.46976	-393.97961	-1848.68628	228.61012	-389.34421	-1872.94446	69.05993	-334.07117	-1933.60925	32.48972	-286.42212	-1737.98010	39.03386	-319.06436	-1709.73157	876.78735	-70.55142	-1721.97925	880.60413	-429.04712	-1857.22192	1019.73303	-212.04927	-1661.35132	989.43408	-354.17337	-1683.19128	993.34558	-131.80957
435	3.61667	-1741.21167	1467.89819	-69.67814	-1842.48340	1388.45044	-369.73468	-1701.61804	1476.67993	-443.12482	-1802.74805	1107.28906	-22.89230	-1696.52051	881.11328	33.08200	-1651.69250	892.11523	-26.92651	-1644.35132	810.61859	30.21474	-1761.12134	1118.07776	-500.96893	-1663.93628	897.76208	-537.85809	-1631.09680	895.09784	-471.85794	-1626.46802	819.53497	-521.37036	-1743.94287	1029.49158	-99.96097	-1852.01135	1012.99255	-256.17557	-1845.48682	1020.34882	-296.24005	-1720.61902	1026.36719	-396.63794	-1598.35266	710.93066	-79.64455	-1554.34888	689.52930	-98.56625	-1604.42200	666.51593	-70.71552	-1567.42676	646.95929	-90.53971	-1594.60547	526.34949	-99.57034	-1662.19446	398.90167	-53.01129	-1654.00439	346.67169	-74.02552	-1705.24548	378.85645	-68.53513	-1701.20935	332.35153	-74.97483	-1807.65857	139.48299	-117.49718	-1859.05127	116.27886	-171.54396	-1687.46716	51.18042	-99.31934	-1680.34412	675.60162	-399.50137	-1665.20459	627.04926	-372.50681	-1711.32751	640.57001	-413.04642	-1689.02124	605.45966	-396.52271	-1765.15955	493.18912	-374.24933	-1825.13330	294.80667	-405.36276	-1805.72681	268.42822	-380.90393	-1865.10498	262.45038	-394.11908	-1848.34241	228.50150	-389.56229	-1872.99316	69.12251	-334.11798	-1933.57239	32.53218	-286.40338	-1737.86816	38.92060	-319.38440	-1705.80664	877.55951	-70.96793	-1720.06189	880.16711	-430.10809	-1854.00684	1019.89893	-212.14122	-1658.58777	989.01257	-355.54407	-1680.84949	993.06598	-133.17505
436	3.62500	-1738.22144	1467.81958	-70.32948	-1838.50684	1388.32361	-370.58133	-1697.38159	1476.38184	-443.58295	-1801.84644	1107.45703	-23.72173	-1697.24683	880.82062	32.83582	-1654.62537	891.00671	-26.79675	-1645.42859	809.99707	30.28701	-1755.77905	1117.43921	-501.61450	-1657.26392	897.81201	-538.39752	-1623.77722	895.79449	-472.82358	-1618.94971	819.90100	-521.84729	-1738.02661	1029.57568	-100.48859	-1848.76953	1012.94830	-256.27612	-1842.38281	1020.18176	-296.40967	-1716.71265	1025.77466	-397.16550	-1593.24731	712.38055	-79.52983	-1549.09082	691.38965	-98.17815	-1598.98816	667.92297	-70.75118	-1561.65857	648.66113	-90.22189	-1587.74084	528.00793	-99.92810	-1653.54541	399.74570	-54.18303	-1644.60095	347.48495	-75.43108	-1696.43628	379.31308	-69.54147	-1691.60608	332.56403	-76.99914	-1796.22058	138.67412	-119.96906	-1847.37659	115.93837	-173.51993	-1674.88306	51.35653	-103.31495	-1678.76001	674.96765	-400.19983	-1663.67688	626.39862	-373.45154	-1710.07837	640.05072	-413.58743	-1687.65540	604.79285	-397.62729	-1764.11560	492.93839	-374.58243	-1824.82849	294.67532	-405.52704	-1805.41577	268.33344	-381.12140	-1864.84180	262.47507	-394.15704	-1848.14075	228.46481	-389.71677	-1872.94885	69.08968	-334.13168	-1933.51270	32.55886	-286.35684	-1737.70447	38.77703	-319.64517	-1701.89807	878.28125	-71.19747	-1718.06897	879.77637	-431.36426	-1850.68250	1020.03180	-212.21080	-1655.76099	988.35120	-356.36520	-1677.32996	992.92090	-134.08322
437	3.63333	-1735.18921	1467.59082	-70.84301	-1834.50439	1388.19177	-371.36792	-1693.20349	1476.01416	-444.10394	-1800.98962	1107.75195	-24.41123	-1698.08862	880.34540	32.65306	-1654.94702	890.47186	-26.57597	-1646.70703	809.24823	30.43843	-1750.31116	1116.69409	-502.24124	-1650.24451	897.70905	-538.67358	-1615.99573	896.22772	-473.64554	-1610.86707	820.37207	-522.55365	-1734.33765	1029.76404	-100.83562	-1845.48865	1012.94214	-256.35675	-1839.08496	1020.00537	-296.52829	-1713.28723	1025.39478	-397.67059	-1588.30957	713.75616	-79.54077	-1543.87073	693.20459	-97.75646	-1593.81812	669.33282	-70.25977	-1556.06348	650.41351	-90.16253	-1580.78357	529.61572	-100.06596	-1644.49292	399.58017	-54.82972	-1634.88879	347.90024	-75.95683	-1687.13538	378.65610	-70.15748	-1682.11694	332.54471	-76.49197	-1783.79565	136.90665	-122.36936	-1834.71912	114.17142	-176.20369	-1661.13184	51.28399	-107.26285	-1677.11060	674.44031	-400.98224	-1662.06421	625.61981	-373.99118	-1708.61975	639.80774	-414.04678	-1686.35791	604.24091	-398.15613	-1763.08130	492.67856	-374.87842	-1824.57983	294.61441	-405.50504	-1805.26099	268.13983	-381.16788	-1864.64233	262.52069	-394.09372	-1847.92285	228.43974	-389.81299	-1872.96606	69.09196	-334.17026	-1933.47510	32.61889	-286.32922	-1737.60815	38.66832	-319.78662	-1699.60645	878.81976	-70.21568	-1715.79333	879.13635	-431.62842	-1847.20911	1020.13324	-212.28772	-1652.77332	987.84644	-357.21146	-1673.18396	993.06750	-135.02107
